# Blender v2.79 (sub 0) OBJ File: ''
# www.blender.org
mtllib TileFeatureWall.mtl
o TileFeatureWall
v 5.000000 10.000000 0.000002
v -5.000000 0.000000 0.000000
v 5.000000 0.000000 0.000000
v 5.000000 10.000000 -0.999998
v 5.000000 0.000000 -1.000000
v -5.000000 0.000000 -1.000000
v -5.000000 10.000000 0.000002
v 5.000000 0.000000 0.000000
v 5.000000 10.000000 0.000002
v -5.000000 10.000000 -0.999998
vt 0.500000 0.500000
vt 1.000000 0.000000
vt 1.000000 0.500000
vt 0.000000 0.000000
vt 0.500000 0.000000
vt 0.500000 0.500000
vt 0.150000 0.500000
vt 0.200000 1.000000
vt 0.150000 1.000000
vt 0.000000 0.000000
vt 0.000000 0.000000
vt 0.000000 0.000000
vt 0.000000 0.000000
vt 0.050000 0.500000
vt 0.050000 1.000000
vt 0.000000 1.000000
vt 0.100000 0.500000
vt 0.150000 0.500000
vt 0.150000 1.000000
vt 0.050000 1.000000
vt 0.100000 0.500000
vt 0.100000 1.000000
vt 0.500000 0.000000
vt 0.000000 0.500000
vt 0.200000 0.500000
vt 0.000000 0.500000
vt 0.100000 1.000000
vn 0.0000 -0.0000 1.0000
vn 0.0000 0.0000 -1.0000
vn -1.0000 0.0000 0.0000
vn 1.0000 -0.0000 0.0000
vn 0.0000 1.0000 0.0000
vn 0.0000 -1.0000 -0.0000
usemtl None
s 1
f 1/1/1 2/2/1 3/3/1
f 4/4/2 5/5/2 6/6/2
f 7/7/3 6/8/3 2/9/3
f 1/10/1 3/11/1 8/12/1 9/13/1
f 5/14/4 4/15/4 9/16/4
f 9/17/5 4/18/5 10/19/5
f 6/20/6 8/21/6 2/22/6
f 1/1/1 7/23/1 2/2/1
f 4/4/2 6/6/2 10/24/2
f 7/7/3 10/25/3 6/8/3
f 5/14/4 9/16/4 8/26/4
f 9/17/5 10/19/5 7/27/5
f 6/20/6 5/14/6 8/21/6
