# Blender v2.79 (sub 0) OBJ File: ''
# www.blender.org
mtllib TileFeatureArchUV.mtl
o TileFeatureArch
v 4.000000 8.000000 0.000001
v 5.000000 10.000000 0.000002
v -5.000000 10.000000 0.000002
v -5.000000 10.000000 -0.999998
v 5.000000 10.000000 -0.999998
v 5.000000 0.000000 0.000000
v -4.000000 8.000000 -0.999999
v 4.000000 0.000000 -1.000000
v 4.000000 0.000000 0.000000
v -4.000000 0.000000 0.000000
v -5.000000 0.000000 -1.000000
v -4.000000 0.000000 -1.000000
v -4.000000 8.000000 0.000001
v -5.000000 0.000000 0.000000
v 5.000000 0.000000 -1.000000
v 4.000000 8.000000 -0.999999
v 5.000000 0.000000 0.000000
v 5.000000 10.000000 0.000002
vt 0.600000 0.450000
vt 0.500000 0.500000
vt 0.500000 0.000000
vt 0.100000 1.000000
vt 0.050000 0.500000
vt 0.100000 0.500000
vt 0.000000 0.500000
vt 0.050000 1.000000
vt 0.000000 1.000000
vt 0.100000 0.450000
vt 0.000000 0.500000
vt 0.000000 0.000000
vt 0.400000 0.550000
vt 0.350000 0.500000
vt 0.400000 0.500000
vt 0.300000 0.500000
vt 0.350000 0.550000
vt 0.300000 0.550000
vt 0.250000 0.500000
vt 0.300000 0.900000
vt 0.250000 0.900000
vt 0.200000 0.900000
vt 0.250000 0.900000
vt 0.150000 0.900000
vt 0.200000 0.500000
vt 0.100000 1.000000
vt 0.150000 0.500000
vt 0.150000 1.000000
vt 1.000000 0.450000
vt 1.000000 0.500000
vt 1.000000 0.000000
vt 0.600000 0.050000
vt 1.000000 0.050000
vt 0.050000 1.000000
vt 0.050000 0.500000
vt 0.500000 0.000000
vt 0.500000 0.050000
vt 0.100000 0.050000
vt 0.500000 0.450000
vt 0.500000 0.500000
vt 0.350000 0.550000
vt 0.350000 0.500000
vt 0.300000 0.500000
vt 0.200000 0.500000
vt 0.150000 0.500000
vt 0.100000 0.500000
vn 0.0000 -0.0000 1.0000
vn 0.0000 1.0000 0.0000
vn 1.0000 0.0000 0.0000
vn -0.0000 0.0000 -1.0000
vn 0.0000 -1.0000 -0.0000
vn -1.0000 0.0000 0.0000
usemtl None
s 1
f 1/1/1 2/2/1 3/3/1
f 4/4/2 2/5/2 5/6/2
f 6/7/3 5/8/3 2/9/3
f 7/10/4 4/11/4 5/12/4
f 8/13/5 6/14/5 9/15/5
f 10/16/5 11/17/5 12/18/5
f 1/19/6 8/20/6 9/21/6
f 7/22/5 1/19/5 13/23/5
f 13/24/3 12/25/3 7/22/3
f 14/26/6 4/27/6 11/28/6
f 1/1/1 9/29/1 6/30/1
f 3/3/1 14/31/1 13/32/1
f 14/31/1 10/33/1 13/32/1
f 1/1/1 6/30/1 2/2/1
f 3/3/1 13/32/1 1/1/1
f 4/4/2 3/34/2 2/5/2
f 6/7/3 15/35/3 5/8/3
f 15/36/4 8/37/4 16/38/4
f 7/10/4 12/39/4 11/40/4
f 5/12/4 15/36/4 16/38/4
f 7/10/4 11/40/4 4/11/4
f 5/12/4 16/38/4 7/10/4
f 8/13/5 15/41/5 6/14/5
f 10/16/5 14/42/5 11/17/5
f 1/19/6 16/43/6 8/20/6
f 7/22/5 16/44/5 1/19/5
f 13/24/3 10/45/3 12/25/3
f 14/26/6 3/46/6 4/27/6
l 17 6
l 18 2
