# Blender v2.79 (sub 0) OBJ File: ''
# www.blender.org
mtllib TileFloorCube.mtl
o Cube.003
v -5.000000 0.000002 -5.000000
v 5.000000 -0.000002 5.000000
v 5.000000 0.000002 -5.000000
v -5.000000 -2.000002 5.000000
v 5.000000 -2.000002 5.000000
v -5.000000 -0.000002 5.000000
v -5.000000 -1.999998 -5.000000
v 5.000000 -1.999998 -5.000000
vt 0.390625 0.720000
vt 0.609375 1.000000
vt 0.609375 0.720000
vt 0.346875 0.664000
vt 0.390625 0.384000
vt 0.390630 0.664000
vt 0.390625 0.328000
vt 0.609375 0.384000
vt 0.609286 0.664490
vt 0.609375 0.664000
vt 0.653125 0.384000
vt 0.609464 0.663510
vt 0.609375 1.000000
vt 0.390625 1.000000
vt 0.390625 0.720000
vt 0.609375 0.328000
vt 0.653125 0.664000
vt 0.346875 0.384000
vn 0.0000 1.0000 0.0000
vn 0.0000 -0.0000 1.0000
vn -1.0000 0.0000 0.0000
vn 0.0000 -1.0000 -0.0000
vn 1.0000 -0.0000 0.0000
vn 0.0000 0.0000 -1.0000
usemtl Material.003
s 1
f 1/1/1 2/2/1 3/3/1
f 2/4/2 4/5/2 5/6/2
f 6/7/3 7/8/3 4/5/3
f 8/9/4 4/5/4 7/8/4
f 3/3/5 5/6/5 8/10/5
f 1/11/6 8/12/6 7/8/6
f 1/13/1 6/14/1 2/15/1
f 6/7/3 1/16/3 7/8/3
f 8/10/4 5/6/4 4/5/4
f 3/3/5 2/15/5 5/6/5
f 1/11/6 3/17/6 8/10/6
f 2/4/2 6/18/2 4/5/2
