# Blender v2.79 (sub 0) OBJ File: ''
# www.blender.org
mtllib TileFloorCube.mtl
o TileFloorPlane.001
v -5.000000 -2.000002 5.000000
v -5.000000 -1.999998 -5.000000
v 5.000000 -1.999998 -5.000000
v 5.000000 -2.000002 5.000000
v 5.000000 -0.000002 5.000000
v -5.000000 0.000002 -5.000000
v -5.000000 -0.000002 5.000000
v 5.000000 0.000002 -5.000000
v 5.000000 -1.999998 -5.000000
v 5.000000 -2.000002 5.000000
vt 0.578596 0.495951
vt 0.578596 0.082727
vt 0.991820 0.082727
vt 0.991820 0.495951
vt 0.999918 0.000082
vt 0.999918 0.454708
vt 0.991984 0.454708
vt 0.991983 0.000082
vt 0.082727 0.495951
vt 0.495951 0.082727
vt 0.495951 0.495951
vt 0.082727 0.082727
vt 0.495951 0.000082
vt 0.000082 0.082727
vt 0.082727 0.578596
vt 0.082727 0.000082
vt 0.000082 0.495951
vt 0.495951 0.578596
vn 0.0000 -1.0000 -0.0000
vn 0.0000 0.0000 0.0000
vn 0.5774 0.5774 0.5774
vn -0.5774 0.5774 -0.5774
vn -0.5774 0.5774 0.5774
vn 0.5774 0.5774 -0.5774
vn -0.7071 -0.0000 -0.7071
vn 0.7071 0.0000 -0.7071
vn 0.7071 0.0000 0.7071
vn -0.7071 -0.0000 0.7071
usemtl None.002
s off
f 1/1/1 2/2/1 3/3/1
f 1/1/1 3/3/1 4/4/1
f 3/5/2 4/6/2 10/7/2 9/8/2
s 1
f 5/9/3 6/10/4 7/11/5
f 8/12/6 2/13/7 6/10/4
f 5/9/3 3/14/8 8/12/6
f 7/11/5 4/15/9 5/9/3
f 6/10/4 1/1/10 7/11/5
f 5/9/3 8/12/6 6/10/4
f 8/12/6 3/16/8 2/13/7
f 5/9/3 4/17/9 3/14/8
f 7/11/5 1/18/10 4/15/9
f 6/10/4 2/2/7 1/1/10
